<svg xmlns="http://www.w3.org/2000/svg"
 xmlns:xlink="http://www.w3.org/1999/xlink"
 width="15px" height="29px"  viewBox="0 0 15 29">
<path fill-rule="evenodd"  fill="#ffffff"
 d="M13.089294,2.1992188 C13.089294,3.675293 13.089294,6.319824 13.089294,6.319824 C13.089294,6.319824 10.051697,6.01709 9.291016,7.1811523 C8.875122,7.817383 9.121979,9.680664 9.085114,11.018555 C10.411133,11.018555 11.788452,11.018555 13.114349,11.018555 C12.77356,12.583496 12.529663,13.643066 12.279297,14.99707 C11.131775,14.99707 9.062561,14.99707 9.062561,14.99707 C9.062561,14.99707 9.062561,27.800781 9.062561,27.800781 C9.062561,27.800781 5.2657776,27.800781 3.480835,27.800781 C3.4819946,23.854004 3.4800415,19.249023 3.480835,15.047363 C2.6137085,15.047363 1.9726257,15.047363 1.1057129,15.047363 C1.1057129,13.571777 1.1057129,12.495605 1.1057129,11.018555 C1.946991,11.018555 2.612915,11.018555 3.4546204,11.018555 C3.5750122,8.073242 3.620453,5.154785 5.0835876,3.6689453 C6.7282104,1.9980469 8.296631,2.1992188 13.089294,2.1992188 Z"/>
</svg>