<svg xmlns="http://www.w3.org/2000/svg"
 xmlns:xlink="http://www.w3.org/1999/xlink"
 width="28px" height="28px"  viewBox="0 0 28 28">
<path fill-rule="evenodd"  fill="#f38181"
 d="M23.69989,26.799805 C23.69989,26.799805 4.499878,26.799805 4.499878,26.799805 C2.732727,26.799805 1.2999268,25.3667 1.2999268,23.59961 C1.2999268,23.59961 1.2999268,4.3999023 1.2999268,4.3999023 C1.2999268,2.6323242 2.732727,1.199707 4.499878,1.199707 C4.499878,1.199707 23.69989,1.199707 23.69989,1.199707 C25.467285,1.199707 26.900024,2.6323242 26.900024,4.3999023 C26.900024,4.3999023 26.900024,23.59961 26.900024,23.59961 C26.900024,25.3667 25.467285,26.799805 23.69989,26.799805 ZM14.100037,9.039551 C12.10437,9.039551 10.388794,10.220703 9.601685,11.919434 C9.601685,11.919434 9.597229,11.919434 9.597229,11.919434 C9.588989,11.9375 9.583374,11.956543 9.575378,11.974121 C9.528198,12.079102 9.486572,12.187012 9.446716,12.29541 C9.427612,12.348145 9.4071045,12.398926 9.3897705,12.451172 C9.35321,12.5625 9.323242,12.67627 9.294556,12.791016 C9.281006,12.844727 9.265015,12.896973 9.253235,12.951172 C9.227234,13.072266 9.209045,13.194824 9.192017,13.318848 C9.18512,13.369141 9.174561,13.417969 9.169189,13.46875 C9.150574,13.643066 9.139893,13.8203125 9.139893,13.999512 C9.139893,16.739258 11.360657,18.959473 14.100037,18.959473 C16.839294,18.959473 19.059998,16.739258 19.059998,13.999512 C19.059998,13.8203125 19.049377,13.643066 19.0307,13.46875 C19.02533,13.417969 19.01477,13.369141 19.007935,13.318848 C18.990845,13.194824 18.972656,13.072266 18.946716,12.951172 C18.934937,12.896973 18.918884,12.844727 18.905396,12.791016 C18.876648,12.67627 18.84668,12.5625 18.81018,12.451172 C18.792786,12.398926 18.772278,12.348145 18.753174,12.29541 C18.713379,12.187012 18.671692,12.079102 18.624573,11.974121 C18.616516,11.956543 18.610962,11.9375 18.602661,11.919434 C18.602661,11.919434 18.598206,11.919434 18.598206,11.919434 C17.811096,10.220703 16.09552,9.039551 14.100037,9.039551 ZM24.019958,5.359375 C24.019958,4.6523438 23.446838,4.07959 22.73999,4.07959 C22.73999,4.07959 20.179932,4.07959 20.179932,4.07959 C19.473022,4.07959 18.900024,4.6523438 18.900024,5.359375 C18.900024,5.359375 18.900024,7.919922 18.900024,7.919922 C18.900024,8.626953 19.473022,9.199707 20.179932,9.199707 C20.179932,9.199707 22.73999,9.199707 22.73999,9.199707 C23.446838,9.199707 24.019958,8.626953 24.019958,7.919922 C24.019958,7.919922 24.019958,5.359375 24.019958,5.359375 ZM24.019958,11.919434 C24.019958,11.919434 21.66034,11.919434 21.66034,11.919434 C21.842407,12.58252 21.940002,13.279785 21.940002,13.999512 C21.940002,18.330078 18.42987,21.839355 14.100037,21.839355 C9.77002,21.839355 6.26001,18.330078 6.26001,13.999512 C6.26001,13.279785 6.357605,12.58252 6.539612,11.919434 C6.539612,11.919434 4.1799316,11.919434 4.1799316,11.919434 C4.1799316,11.919434 4.1799316,22.63916 4.1799316,22.63916 C4.1799316,23.34668 4.7530518,23.919922 5.459961,23.919922 C5.459961,23.919922 22.73999,23.919922 22.73999,23.919922 C23.446838,23.919922 24.019958,23.34668 24.019958,22.63916 C24.019958,22.63916 24.019958,11.919434 24.019958,11.919434 Z"/>
</svg>