<svg xmlns="http://www.w3.org/2000/svg"
 xmlns:xlink="http://www.w3.org/1999/xlink"
 width="23px" height="29px"  viewBox="0 0 23 29">
<path fill-rule="evenodd"  fill="#f38181"
 d="M10.050781,17.853516 C9.841553,18.687012 9.631226,19.560059 9.412842,20.41455 C9.197632,21.25586 9.008423,22.109863 8.6953125,22.88379 C8.1762085,24.16504 7.5167847,25.40332 6.6517334,26.405273 C6.0771484,27.072266 6.199341,26.805664 6.026245,26.77002 C5.894287,26.742676 5.8825684,26.613281 5.8567505,26.425293 C5.7159424,25.406738 5.8118896,24.230469 5.86438,23.085938 C5.923889,21.782227 6.197998,20.698242 6.4525146,19.615234 C6.9370728,17.551758 7.398926,15.527832 7.8876953,13.451172 C7.92041,13.312988 8.007874,13.084961 7.977661,13.005859 C7.7561035,12.429199 7.6122437,11.911133 7.5490723,11.305664 C7.4761963,10.609863 7.5321655,9.961426 7.6884766,9.362305 C7.9644775,8.3046875 8.601257,7.366699 9.582336,7.023926 C10.206055,6.807617 10.897278,6.9057617 11.3168335,7.15625 C11.7491455,7.414551 12.045593,7.822754 12.184082,8.401855 C12.331543,9.017578 12.222839,9.75293 12.104187,10.293457 C11.837036,11.511719 11.486328,12.426758 11.167236,13.602539 C11.009094,14.186035 10.8302,14.785156 10.977844,15.414551 C11.1137085,15.992676 11.414673,16.391113 11.825256,16.689453 C12.250671,16.999512 12.754517,17.169434 13.44989,17.14502 C14.677612,17.10205 15.531006,16.316895 16.101501,15.57666 C17.01355,14.392578 17.566345,12.793457 17.776001,10.890625 C17.843506,10.277344 17.893066,9.572266 17.845703,8.876465 C17.758484,7.5927734 17.35669,6.560547 16.71936,5.7597656 C16.112915,4.9975586 15.252991,4.390625 14.2074585,4.0493164 C13.17041,3.7109375 11.734741,3.5981445 10.459534,3.8164062 C8.142456,4.213379 6.5078735,5.5302734 5.545349,7.349121 C5.0410156,8.300781 4.708069,9.396484 4.708069,10.758789 C4.708069,11.810059 4.967407,12.624023 5.3860474,13.258789 C5.5186768,13.460449 5.7141113,13.625977 5.8444824,13.855957 C6.0290527,14.182129 5.815979,14.66748 5.7246704,15.02002 C5.614929,15.4453125 5.6032715,16.032227 5.1068115,16.04248 C4.9014893,16.045898 4.6431885,15.895508 4.468811,15.799316 C3.1643066,15.078125 2.371521,13.766113 2.0466309,12.064941 C1.8492432,11.03125 1.8496094,9.825684 2.0466309,8.82666 C2.2370605,7.8603516 2.5914917,6.96875 2.9837036,6.2456055 C3.7979126,4.743164 4.9906616,3.541504 6.442566,2.6831055 C7.558716,2.0229492 8.817993,1.5600586 10.3497925,1.3374023 C10.858276,1.2626953 11.384216,1.2324219 11.954834,1.2055664 C13.622681,1.1269531 15.139404,1.5048828 16.280945,2.0151367 C17.486084,2.553711 18.44751,3.2714844 19.261108,4.1606445 C20.098572,5.0756836 20.708618,6.1401367 21.095459,7.470215 C21.29663,8.162109 21.49292,8.902344 21.49292,9.756836 C21.49292,10.614746 21.311646,11.370117 21.185059,12.125 C20.71106,14.953125 19.366028,17.266113 17.347412,18.58252 C16.857788,18.901367 16.265564,19.1958 15.593018,19.39209 C14.925964,19.586426 14.165161,19.731934 13.35022,19.675293 C12.558594,19.621094 11.911438,19.405762 11.366699,19.098145 C10.826538,18.792969 10.372559,18.419434 10.050781,17.853516 Z"/>
</svg>