<svg xmlns="http://www.w3.org/2000/svg"
 xmlns:xlink="http://www.w3.org/1999/xlink"
 width="28px" height="24px"  viewBox="0 0 28 24">
<path fill-rule="evenodd"  fill="#f38181"
 d="M18.512573,1.6010742 C20.546997,1.5649414 21.62976,2.3061523 22.66394,3.2485352 C23.54181,3.1733398 24.682678,2.6831055 25.354675,2.3413086 C25.572449,2.2226562 25.790344,2.1030273 26.008057,1.984375 C25.624329,3.0214844 25.10382,3.833496 24.304016,4.449707 C24.126404,4.5859375 23.950012,4.7714844 23.727417,4.8583984 C23.727417,4.8618164 23.727417,4.866699 23.727417,4.8710938 C24.867188,4.8598633 25.80719,4.345215 26.700073,4.0664062 C26.700073,4.0703125 26.700073,4.074707 26.700073,4.07959 C26.23108,4.824707 25.596252,5.5810547 24.919006,6.123047 C24.645752,6.340332 24.372314,6.557129 24.09906,6.773926 C24.113892,7.980957 24.081177,9.1328125 23.85553,10.146973 C22.543884,16.041992 19.06842,20.044434 13.566803,21.75879 C11.591339,22.374512 8.398773,22.627441 6.135376,22.064941 C5.0129395,21.786621 3.9990845,21.472168 3.0475159,21.05664 C2.519043,20.825195 2.0294495,20.575195 1.5612793,20.28955 C1.4074707,20.1958 1.2537842,20.10254 1.0999756,20.00879 C1.6104736,20.024414 2.2077637,20.16504 2.778473,20.072754 C3.2948303,19.989258 3.8012085,20.01123 4.277527,19.906738 C5.465637,19.645996 6.520569,19.30127 7.4294434,18.769531 C7.870056,18.511719 8.538635,18.209473 8.851746,17.837402 C8.261658,17.847656 7.726898,17.71045 7.288574,17.556152 C5.5895996,16.956543 4.600708,15.853027 3.9572144,14.196289 C4.4720764,14.25293 5.9551086,14.386719 6.302002,14.094238 C5.6538086,14.058594 5.030548,13.683105 4.585144,13.404785 C3.2183838,12.549316 2.1038208,11.115234 2.1121826,8.908203 C2.291504,8.993164 2.4709473,9.078613 2.650299,9.163086 C2.9936218,9.308105 3.3426514,9.385254 3.7522583,9.470215 C3.925293,9.505859 4.271118,9.606934 4.4697876,9.533203 C4.461212,9.533203 4.4526367,9.533203 4.444153,9.533203 C4.1796875,9.226074 3.748932,9.020508 3.4831848,8.69043 C2.6063538,7.601074 1.7845459,5.923828 2.3044434,3.9257812 C2.4362793,3.4189453 2.6453857,2.972168 2.8681946,2.559082 C2.876648,2.5629883 2.885254,2.5673828 2.8938293,2.571289 C2.9957886,2.7856445 3.2235107,2.9423828 3.3678284,3.1210938 C3.8156433,3.6757812 4.368042,4.175293 4.930969,4.6152344 C6.8489075,6.1157227 8.576172,7.0371094 11.35022,7.7192383 C12.053894,7.8930664 12.867249,8.025391 13.707794,8.026367 C13.47171,7.338379 13.547577,6.2265625 13.733429,5.560547 C14.200928,3.8876953 15.216248,2.6816406 16.706055,2.0356445 C17.062195,1.8803711 17.457214,1.7680664 17.871948,1.6772461 C18.08551,1.6518555 18.299072,1.6259766 18.512573,1.6010742 Z"/>
</svg>